<?xml version="1.0" standalone="no"?>
<!DOCTYPE svg PUBLIC "-//W3C//DTD SVG 20010904//EN"
 "http://www.w3.org/TR/2001/REC-SVG-20010904/DTD/svg10.dtd">
<svg version="1.0" xmlns="http://www.w3.org/2000/svg"
 width="460.000000pt" height="460.000000pt" viewBox="0 0 460.000000 460.000000"
 preserveAspectRatio="xMidYMid meet">
<metadata>
Created by potrace 1.11, written by Peter Selinger 2001-2013
</metadata>
<g transform="translate(0.000000,460.000000) scale(0.100000,-0.100000)"
fill="#000000" stroke="none">
<path d="M0 2295 l0 -2295 2295 0 2295 0 0 2295 0 2295 -2295 0 -2295 0 0
-2295z m3580 1654 c72 -11 181 -57 249 -103 167 -116 281 -337 281 -546 0 -98
-33 -232 -76 -303 -19 -32 -34 -61 -34 -65 0 -4 -25 -34 -55 -67 -30 -32 -55
-62 -55 -66 0 -4 25 -34 55 -65 30 -32 55 -61 55 -66 0 -4 14 -31 31 -60 43
-71 79 -212 79 -306 0 -101 -33 -232 -81 -319 -39 -73 -56 -94 -117 -154 l-32
-32 32 -33 c88 -86 150 -197 179 -320 17 -72 20 -107 15 -184 -6 -100 -31
-204 -62 -260 -11 -18 -25 -44 -33 -59 -22 -42 -119 -148 -164 -180 -71 -50
-178 -98 -261 -115 -70 -14 -223 -16 -1455 -16 -1341 0 -1377 1 -1419 20 -107
49 -108 219 -1 280 l44 25 1405 5 1405 5 57 38 c70 47 134 128 147 187 15 65
13 159 -4 216 -19 63 -98 154 -168 191 l-52 28 -1407 5 -1407 5 -28 21 c-91
67 -96 201 -10 267 l35 26 1394 3 1393 3 68 33 c77 38 137 96 169 161 26 55
36 178 19 248 -18 75 -94 161 -178 204 l-67 34 -1404 5 -1403 5 -39 41 c-23
25 -41 56 -45 78 -11 58 3 104 45 150 l39 41 1404 5 1404 5 69 35 c85 43 156
126 174 202 18 71 8 194 -18 249 -49 101 -158 178 -265 186 -89 6 -102 10
-137 39 -46 39 -73 99 -66 145 7 46 49 111 79 123 63 25 85 25 217 5z"/>
</g>
</svg>
